<svg width="389" height="111" viewBox="0 0 389 111" fill="none" xmlns="http://www.w3.org/2000/svg">
<path d="M153 55.6791C173 28.1835 214 28.1835 234 55.6791C213.798 82.7751 173.202 82.7751 153 55.6791Z" stroke="white" stroke-width="8" stroke-linecap="round" stroke-linejoin="round"/>
<circle cx="194" cy="49" r="13" stroke="white" stroke-width="8"/>
<rect x="190" width="8" height="26" rx="4" fill="white"/>
<rect x="198" y="111" width="8" height="26" rx="4" transform="rotate(-180 198 111)" fill="white"/>
<rect width="8" height="19" rx="4" transform="matrix(-0.862375 0.50627 0.50627 0.862375 164.86 11.0879)" fill="white"/>
<rect width="8" height="19" rx="4" transform="matrix(0.862375 -0.50627 -0.50627 -0.862375 223.14 99.9121)" fill="white"/>
<rect x="223.619" y="11" width="8" height="19" rx="4" transform="rotate(30.4157 223.619 11)" fill="white"/>
<rect x="164.381" y="100" width="8" height="19" rx="4" transform="rotate(-149.584 164.381 100)" fill="white"/>
<circle cx="150" cy="37" r="4" fill="white"/>
<circle cx="238" cy="74" r="4" transform="rotate(-180 238 74)" fill="white"/>
<circle cx="238" cy="37" r="4" fill="white"/>
<circle cx="150" cy="74" r="4" transform="rotate(-180 150 74)" fill="white"/>
<mask id="path-13-outside-1_1442_336" maskUnits="userSpaceOnUse" x="265" y="25" width="53" height="66" fill="black">
<rect fill="white" x="265" y="25" width="53" height="66"/>
<path fill-rule="evenodd" clip-rule="evenodd" d="M309.974 36.0486C298.26 36.5232 288.909 46.1696 288.909 58C288.909 69.8304 298.26 79.4768 309.974 79.9514C306.418 81.8951 302.338 83 298 83C284.193 83 273 71.8071 273 58C273 44.1929 284.193 33 298 33C302.338 33 306.418 34.1049 309.974 36.0486Z"/>
</mask>
<path d="M309.974 36.0486L310.298 44.042C313.89 43.8965 316.944 41.3723 317.763 37.8715C318.583 34.3707 316.966 30.7534 313.811 29.0289L309.974 36.0486ZM309.974 79.9514L313.811 86.9711C316.966 85.2466 318.583 81.6293 317.763 78.1285C316.944 74.6277 313.89 72.1035 310.298 71.958L309.974 79.9514ZM296.909 58C296.909 50.4794 302.855 44.3436 310.298 44.042L309.65 28.0552C293.665 28.7028 280.909 41.8598 280.909 58H296.909ZM310.298 71.958C302.855 71.6564 296.909 65.5206 296.909 58H280.909C280.909 74.1402 293.665 87.2972 309.65 87.9448L310.298 71.958ZM306.137 72.9317C303.728 74.2484 300.964 75 298 75V91C303.712 91 309.108 89.5418 313.811 86.9711L306.137 72.9317ZM298 75C288.611 75 281 67.3888 281 58H265C265 76.2254 279.775 91 298 91V75ZM281 58C281 48.6112 288.611 41 298 41V25C279.775 25 265 39.7746 265 58H281ZM298 41C300.964 41 303.728 41.7516 306.137 43.0683L313.811 29.0289C309.108 26.4582 303.712 25 298 25V41Z" fill="white" mask="url(#path-13-outside-1_1442_336)"/>
<mask id="path-15-outside-2_1442_336" maskUnits="userSpaceOnUse" x="69.9738" y="25" width="53" height="66" fill="black">
<rect fill="white" x="69.9738" y="25" width="53" height="66"/>
<path fill-rule="evenodd" clip-rule="evenodd" d="M78 36.0486C89.7139 36.5232 99.0647 46.1696 99.0647 58C99.0647 69.8304 89.7139 79.4768 78 79.9514C81.5558 81.8951 85.6358 83 89.9738 83C103.781 83 114.974 71.8071 114.974 58C114.974 44.1929 103.781 33 89.9738 33C85.6358 33 81.5558 34.1049 78 36.0486Z"/>
</mask>
<path d="M78 36.0486L77.6761 44.042C74.0837 43.8965 71.0297 41.3723 70.2104 37.8715C69.3912 34.3707 71.008 30.7534 74.1628 29.0289L78 36.0486ZM78 79.9514L74.1628 86.9711C71.008 85.2466 69.3912 81.6293 70.2104 78.1285C71.0297 74.6277 74.0837 72.1035 77.6761 71.958L78 79.9514ZM91.0647 58C91.0647 50.4794 85.1188 44.3436 77.6761 44.042L78.3239 28.0552C94.309 28.7028 107.065 41.8598 107.065 58H91.0647ZM77.6761 71.958C85.1188 71.6564 91.0647 65.5206 91.0647 58H107.065C107.065 74.1402 94.309 87.2972 78.3239 87.9448L77.6761 71.958ZM81.8372 72.9317C84.2459 74.2484 87.0102 75 89.9738 75V91C84.2614 91 78.8657 89.5418 74.1628 86.9711L81.8372 72.9317ZM89.9738 75C99.3627 75 106.974 67.3888 106.974 58H122.974C122.974 76.2254 108.199 91 89.9738 91V75ZM106.974 58C106.974 48.6112 99.3627 41 89.9738 41V25C108.199 25 122.974 39.7746 122.974 58H106.974ZM89.9738 41C87.0101 41 84.2459 41.7516 81.8372 43.0683L74.1628 29.0289C78.8657 26.4582 84.2614 25 89.9738 25V41Z" fill="white" mask="url(#path-15-outside-2_1442_336)"/>
<path d="M348.231 59.2277C347.593 58.8378 347.593 57.9111 348.231 57.5212L357.599 51.7956C357.785 51.6817 357.929 51.51 358.009 51.3067L363.71 36.7386C364.042 35.8912 365.241 35.8912 365.572 36.7387L371.275 51.3124C371.353 51.5122 371.493 51.6816 371.675 51.7955L380.824 57.527C381.45 57.9188 381.45 58.8301 380.824 59.2219L371.668 64.9579C371.49 65.069 371.352 65.233 371.273 65.4268L365.567 79.3783C365.228 80.2069 364.054 80.2069 363.715 79.3784L358.011 65.4324C357.93 65.2352 357.788 65.0689 357.606 64.9578L348.231 59.2277Z" stroke="white" stroke-width="8" stroke-linejoin="round"/>
<path d="M7.23062 59.2277C6.59259 58.8378 6.59259 57.9111 7.23062 57.5212L16.5992 51.7956C16.7855 51.6817 16.9294 51.51 17.009 51.3067L22.71 36.7386C23.0416 35.8912 24.2409 35.8912 24.5724 36.7387L30.2747 51.3124C30.3528 51.5122 30.4932 51.6816 30.675 51.7955L39.8244 57.527C40.4499 57.9188 40.4499 58.8301 39.8244 59.2219L30.6679 64.9579C30.4905 65.069 30.3524 65.233 30.2732 65.4268L24.5666 79.3783C24.2277 80.2069 23.0544 80.2069 22.7154 79.3784L17.0105 65.4324C16.9298 65.2352 16.7883 65.0689 16.6064 64.9578L7.23062 59.2277Z" stroke="white" stroke-width="8" stroke-linejoin="round"/>
</svg>
