<svg width="16" height="16" viewBox="0 0 16 16" fill="none" xmlns="http://www.w3.org/2000/svg">
<rect width="16" height="16" rx="8" fill="#191919"/>
<path d="M8.5317 9.03383C8.0197 9.3686 7.68494 9.58521 7.46832 9.58521C7.32063 9.58521 7.15324 9.4769 6.90709 9.17167C6.62155 8.81721 6.3754 8.36429 6.3754 8.17721C6.3754 7.99998 6.6314 7.65537 6.84801 7.65537C6.96617 7.65537 7.13355 7.74398 7.29109 7.74398C7.84247 7.74398 8.10832 6.75937 7.88186 6.12921C7.45847 6.0406 7.22217 5.94214 6.8874 5.94214C6.8874 5.94214 5.62709 7.02521 4.89847 8.4726C4.89847 7.8129 4.88863 7.27137 4.88863 6.7889C6.2474 6.10952 7.38955 5.29229 7.38955 4.36675C7.38955 3.57906 6.56247 3.08675 5.37109 3.0769C3.69724 4.2486 3.16555 4.78029 3.16555 6.77906C3.16555 7.76367 3.29355 9.27014 3.29355 9.70337C3.29355 9.9889 3.23447 10.2548 3.07693 10.5994C3.18524 11.0523 4.00247 11.2394 4.67201 11.0424C4.80001 10.0874 5.26278 9.27998 5.26278 9.27998C5.93232 10.5698 6.31632 11.2295 6.78893 11.2295L8.83693 9.4966L8.5317 9.03383ZM5.04617 4.57352C5.10524 4.43567 5.18401 4.32737 5.37109 4.32737C5.68617 4.32737 5.9914 4.6129 5.9914 4.90829C5.9914 5.28244 5.50893 5.6566 4.89847 6.0406C4.90832 5.30214 4.93786 4.83937 5.04617 4.57352Z" fill="#FCECD0"/>
<path d="M12.9728 6.28675C12.9728 6.28675 12.6479 6.39506 12.4017 6.39506C11.7617 6.39506 11.3679 5.62706 10.0386 5.62706C8.63063 6.48367 7.84294 7.16306 7.84294 8.54152C7.84294 9.71321 8.40417 10.6978 9.56601 10.9834L10.7082 9.91014C10.7279 10.1366 10.846 10.7274 10.846 11.1114C10.846 11.8695 10.3832 12.2338 9.67432 12.2338C8.85709 12.2338 8.14817 11.7612 8.3254 11.1114L7.65586 10.9637C7.65586 10.9637 7.3014 11.5348 7.3014 12.2141C7.3014 13.1495 7.97094 13.6812 9.65463 13.5434C11.23 12.6277 12.4116 11.8301 12.4116 10.2941C12.4116 9.66398 12.2146 8.74829 12.2343 7.27137C12.2343 7.27137 12.6774 7.21229 13.1303 6.94644L12.9728 6.28675ZM9.42817 7.90152C9.42817 7.28121 9.68417 6.94644 9.95986 6.94644C10.1076 6.94644 10.3045 7.0449 10.4226 7.16306C10.5605 7.31075 10.5999 7.53721 10.5999 8.23629C10.5999 8.83691 10.5703 9.05352 10.4423 9.21106C10.3734 9.28983 10.2356 9.39814 10.1272 9.39814C9.88109 9.39814 9.42817 8.7286 9.42817 7.90152Z" fill="#FCECD0"/>
</svg>
